<?xml version="1.0" standalone="no"?>
<!DOCTYPE svg PUBLIC "-//W3C//DTD SVG 20010904//EN"
 "http://www.w3.org/TR/2001/REC-SVG-20010904/DTD/svg10.dtd">
<svg version="1.0" xmlns="http://www.w3.org/2000/svg"
 width="340.000000pt" height="340.000000pt" viewBox="0 0 340.000000 340.000000"
 preserveAspectRatio="xMidYMid meet">
<metadata>
Created by potrace 1.11, written by Peter Selinger 2001-2013
</metadata>
<g transform="translate(0.000000,340.000000) scale(0.100000,-0.100000)"
fill="#000000" stroke="none">
<path d="M1610 3354 c-47 -25 -132 -70 -190 -101 -162 -86 -324 -173 -445
-238 -33 -18 -105 -56 -160 -85 -55 -29 -125 -66 -155 -83 -30 -16 -104 -56
-165 -88 -60 -32 -150 -80 -200 -107 l-90 -49 -2 -264 -3 -264 50 -24 c28 -13
50 -26 50 -30 0 -3 -21 -17 -48 -31 l-47 -25 0 -265 0 -265 47 -25 c27 -14 48
-27 48 -30 0 -3 -23 -17 -50 -33 l-50 -27 2 -263 3 -262 30 -15 c27 -14 94
-50 290 -155 76 -41 344 -184 455 -243 47 -24 146 -77 220 -117 161 -87 238
-127 387 -207 l113 -59 127 67 c71 37 142 75 158 84 17 10 84 46 150 80 66 34
134 70 150 80 17 9 80 43 140 75 61 32 137 72 170 90 63 34 166 89 275 147 36
19 119 63 185 98 66 35 126 67 133 73 9 7 12 73 12 267 l0 257 -38 26 c-21 13
-47 26 -58 29 -14 2 -4 12 39 36 l57 32 0 259 0 258 -38 26 c-21 13 -47 26
-58 29 -14 2 -4 12 39 36 l57 32 -2 262 -3 262 -325 174 c-179 95 -380 203
-448 238 l-122 65 -118 -62 c-64 -34 -132 -70 -149 -81 l-33 -20 0 160 0 160
-32 20 c-41 25 -264 142 -269 142 -2 0 -42 -21 -89 -46z"/>
</g>
</svg>
